<mxfile host="app.diagrams.net" modified="2022-09-24T03:29:33.530Z" agent="5.0 (Windows NT 10.0; Win64; x64) AppleWebKit/537.36 (KHTML, like Gecko) Chrome/105.0.0.0 Safari/537.36 Edg/105.0.1343.50" etag="fluGNG3tkqSd7pCaDTDD" version="20.3.6" type="github">
  <diagram id="iXZ8qJka1d_i8wJ6fiUk" name="第 1 页">
    <mxGraphModel dx="809" dy="458" grid="1" gridSize="10" guides="1" tooltips="1" connect="1" arrows="1" fold="1" page="1" pageScale="1" pageWidth="3300" pageHeight="2339" math="0" shadow="0">
      <root>
        <mxCell id="0" />
        <mxCell id="1" parent="0" />
        <mxCell id="jouf5e_0O64Z1K_9d5no-1" value="浏览器" style="shape=umlLifeline;perimeter=lifelinePerimeter;whiteSpace=wrap;html=1;container=1;collapsible=0;recursiveResize=0;outlineConnect=0;" parent="1" vertex="1">
          <mxGeometry x="80" y="70" width="110" height="580" as="geometry" />
        </mxCell>
        <mxCell id="jouf5e_0O64Z1K_9d5no-4" value="" style="html=1;points=[];perimeter=orthogonalPerimeter;" parent="jouf5e_0O64Z1K_9d5no-1" vertex="1">
          <mxGeometry x="50" y="59" width="10" height="441" as="geometry" />
        </mxCell>
        <mxCell id="jouf5e_0O64Z1K_9d5no-5" value="用户访问权限资源" style="html=1;verticalAlign=bottom;startArrow=oval;startFill=1;endArrow=block;startSize=8;rounded=0;" parent="jouf5e_0O64Z1K_9d5no-1" edge="1">
          <mxGeometry width="60" relative="1" as="geometry">
            <mxPoint x="60" y="59" as="sourcePoint" />
            <mxPoint x="254.49999999999977" y="59" as="targetPoint" />
          </mxGeometry>
        </mxCell>
        <mxCell id="jouf5e_0O64Z1K_9d5no-3" value="门户登录认证中心" style="shape=umlLifeline;perimeter=lifelinePerimeter;whiteSpace=wrap;html=1;container=1;collapsible=0;recursiveResize=0;outlineConnect=0;" parent="1" vertex="1">
          <mxGeometry x="480" y="70" width="110" height="580" as="geometry" />
        </mxCell>
        <mxCell id="pAan9704VEjPBcL9PNMM-5" value="" style="html=1;points=[];perimeter=orthogonalPerimeter;" parent="jouf5e_0O64Z1K_9d5no-3" vertex="1">
          <mxGeometry x="50" y="109" width="10" height="50" as="geometry" />
        </mxCell>
        <mxCell id="pAan9704VEjPBcL9PNMM-6" value="验证未登录" style="edgeStyle=orthogonalEdgeStyle;html=1;align=left;spacingLeft=2;endArrow=block;rounded=0;entryX=1;entryY=0;" parent="jouf5e_0O64Z1K_9d5no-3" edge="1">
          <mxGeometry relative="1" as="geometry">
            <mxPoint x="60" y="124" as="sourcePoint" />
            <Array as="points">
              <mxPoint x="85" y="124" />
            </Array>
            <mxPoint x="60" y="144" as="targetPoint" />
          </mxGeometry>
        </mxCell>
        <mxCell id="pAan9704VEjPBcL9PNMM-8" value="" style="html=1;points=[];perimeter=orthogonalPerimeter;" parent="jouf5e_0O64Z1K_9d5no-3" vertex="1">
          <mxGeometry x="50" y="209" width="10" height="100" as="geometry" />
        </mxCell>
        <mxCell id="pAan9704VEjPBcL9PNMM-14" value="验证登录信息" style="edgeStyle=orthogonalEdgeStyle;html=1;align=left;spacingLeft=2;endArrow=block;rounded=0;entryX=1;entryY=0;" parent="jouf5e_0O64Z1K_9d5no-3" edge="1">
          <mxGeometry relative="1" as="geometry">
            <mxPoint x="60" y="219" as="sourcePoint" />
            <Array as="points">
              <mxPoint x="85" y="219" />
            </Array>
            <mxPoint x="60" y="239" as="targetPoint" />
          </mxGeometry>
        </mxCell>
        <mxCell id="pAan9704VEjPBcL9PNMM-15" value="创建全局会话" style="edgeStyle=orthogonalEdgeStyle;html=1;align=left;spacingLeft=2;endArrow=block;rounded=0;entryX=1;entryY=0;" parent="jouf5e_0O64Z1K_9d5no-3" edge="1">
          <mxGeometry relative="1" as="geometry">
            <mxPoint x="60" y="249" as="sourcePoint" />
            <Array as="points">
              <mxPoint x="85" y="249" />
            </Array>
            <mxPoint x="60" y="269" as="targetPoint" />
          </mxGeometry>
        </mxCell>
        <mxCell id="pAan9704VEjPBcL9PNMM-16" value="创建授权令牌" style="edgeStyle=orthogonalEdgeStyle;html=1;align=left;spacingLeft=2;endArrow=block;rounded=0;entryX=1;entryY=0;" parent="jouf5e_0O64Z1K_9d5no-3" edge="1">
          <mxGeometry relative="1" as="geometry">
            <mxPoint x="60" y="279" as="sourcePoint" />
            <Array as="points">
              <mxPoint x="85" y="279" />
            </Array>
            <mxPoint x="60" y="299" as="targetPoint" />
          </mxGeometry>
        </mxCell>
        <mxCell id="pAan9704VEjPBcL9PNMM-19" value="" style="html=1;points=[];perimeter=orthogonalPerimeter;" parent="jouf5e_0O64Z1K_9d5no-3" vertex="1">
          <mxGeometry x="50" y="334" width="10" height="70" as="geometry" />
        </mxCell>
        <mxCell id="pAan9704VEjPBcL9PNMM-20" value="令牌有效" style="edgeStyle=orthogonalEdgeStyle;html=1;align=left;spacingLeft=2;endArrow=block;rounded=0;entryX=1;entryY=0;" parent="jouf5e_0O64Z1K_9d5no-3" edge="1">
          <mxGeometry relative="1" as="geometry">
            <mxPoint x="60" y="344" as="sourcePoint" />
            <Array as="points">
              <mxPoint x="85" y="344" />
            </Array>
            <mxPoint x="60" y="364" as="targetPoint" />
          </mxGeometry>
        </mxCell>
        <mxCell id="pAan9704VEjPBcL9PNMM-21" value="注册（安责险系统）" style="edgeStyle=orthogonalEdgeStyle;html=1;align=left;spacingLeft=2;endArrow=block;rounded=0;entryX=1;entryY=0;" parent="jouf5e_0O64Z1K_9d5no-3" edge="1">
          <mxGeometry relative="1" as="geometry">
            <mxPoint x="60" y="371" as="sourcePoint" />
            <Array as="points">
              <mxPoint x="85" y="371" />
            </Array>
            <mxPoint x="60" y="391" as="targetPoint" />
          </mxGeometry>
        </mxCell>
        <mxCell id="jouf5e_0O64Z1K_9d5no-2" value="安责险系统" style="shape=umlLifeline;perimeter=lifelinePerimeter;whiteSpace=wrap;html=1;container=1;collapsible=0;recursiveResize=0;outlineConnect=0;" parent="1" vertex="1">
          <mxGeometry x="280" y="70" width="110" height="580" as="geometry" />
        </mxCell>
        <mxCell id="jouf5e_0O64Z1K_9d5no-6" value="" style="html=1;points=[];perimeter=orthogonalPerimeter;" parent="jouf5e_0O64Z1K_9d5no-2" vertex="1">
          <mxGeometry x="50" y="59" width="10" height="410" as="geometry" />
        </mxCell>
        <mxCell id="pAan9704VEjPBcL9PNMM-2" value="验证未登录" style="edgeStyle=orthogonalEdgeStyle;html=1;align=left;spacingLeft=2;endArrow=block;rounded=0;entryX=1;entryY=0;" parent="jouf5e_0O64Z1K_9d5no-2" edge="1">
          <mxGeometry relative="1" as="geometry">
            <mxPoint x="60" y="59" as="sourcePoint" />
            <Array as="points">
              <mxPoint x="90" y="59" />
            </Array>
            <mxPoint x="65" y="79" as="targetPoint" />
          </mxGeometry>
        </mxCell>
        <mxCell id="pAan9704VEjPBcL9PNMM-4" value="访问认证中心" style="html=1;verticalAlign=bottom;endArrow=block;rounded=0;" parent="jouf5e_0O64Z1K_9d5no-2" edge="1">
          <mxGeometry width="80" relative="1" as="geometry">
            <mxPoint x="60" y="109" as="sourcePoint" />
            <mxPoint x="254.49999999999977" y="109" as="targetPoint" />
          </mxGeometry>
        </mxCell>
        <mxCell id="pAan9704VEjPBcL9PNMM-23" value="令牌有效" style="html=1;verticalAlign=bottom;endArrow=open;dashed=1;endSize=8;rounded=0;" parent="jouf5e_0O64Z1K_9d5no-2" edge="1">
          <mxGeometry relative="1" as="geometry">
            <mxPoint x="252.67000000000007" y="404" as="sourcePoint" />
            <mxPoint x="60" y="404" as="targetPoint" />
          </mxGeometry>
        </mxCell>
        <mxCell id="pAan9704VEjPBcL9PNMM-24" value="创建局部会话（令牌）" style="edgeStyle=orthogonalEdgeStyle;html=1;align=left;spacingLeft=2;endArrow=block;rounded=0;entryX=1;entryY=0;" parent="jouf5e_0O64Z1K_9d5no-2" edge="1">
          <mxGeometry relative="1" as="geometry">
            <mxPoint x="60" y="429" as="sourcePoint" />
            <Array as="points">
              <mxPoint x="85" y="429" />
            </Array>
            <mxPoint x="60" y="449" as="targetPoint" />
          </mxGeometry>
        </mxCell>
        <mxCell id="pAan9704VEjPBcL9PNMM-7" value="重定向登录页" style="html=1;verticalAlign=bottom;endArrow=open;dashed=1;endSize=8;rounded=0;" parent="1" edge="1">
          <mxGeometry relative="1" as="geometry">
            <mxPoint x="530" y="229" as="sourcePoint" />
            <mxPoint x="134.3888888888889" y="229" as="targetPoint" />
          </mxGeometry>
        </mxCell>
        <mxCell id="pAan9704VEjPBcL9PNMM-13" value="登录（用户名、密码、安责险系统地址）" style="html=1;verticalAlign=bottom;endArrow=block;rounded=0;" parent="1" edge="1">
          <mxGeometry width="80" relative="1" as="geometry">
            <mxPoint x="140" y="279" as="sourcePoint" />
            <mxPoint x="540" y="279" as="targetPoint" />
          </mxGeometry>
        </mxCell>
        <mxCell id="pAan9704VEjPBcL9PNMM-17" value="跳转（令牌）" style="html=1;verticalAlign=bottom;endArrow=open;dashed=1;endSize=8;rounded=0;" parent="1" edge="1">
          <mxGeometry relative="1" as="geometry">
            <mxPoint x="532.67" y="379" as="sourcePoint" />
            <mxPoint x="340" y="379" as="targetPoint" />
          </mxGeometry>
        </mxCell>
        <mxCell id="pAan9704VEjPBcL9PNMM-18" value="校验（令牌、安责险系统地址）" style="html=1;verticalAlign=bottom;endArrow=block;rounded=0;" parent="1" edge="1">
          <mxGeometry width="80" relative="1" as="geometry">
            <mxPoint x="340" y="404" as="sourcePoint" />
            <mxPoint x="534.5" y="404" as="targetPoint" />
          </mxGeometry>
        </mxCell>
        <mxCell id="pAan9704VEjPBcL9PNMM-27" value="受保护资源" style="html=1;verticalAlign=bottom;endArrow=open;dashed=1;endSize=8;rounded=0;" parent="1" edge="1">
          <mxGeometry relative="1" as="geometry">
            <mxPoint x="330" y="539" as="sourcePoint" />
            <mxPoint x="140" y="539" as="targetPoint" />
          </mxGeometry>
        </mxCell>
        <mxCell id="pAan9704VEjPBcL9PNMM-29" value="" style="shape=actor;whiteSpace=wrap;html=1;" parent="1" vertex="1">
          <mxGeometry x="66.38" y="980" width="30" height="40" as="geometry" />
        </mxCell>
        <mxCell id="pAan9704VEjPBcL9PNMM-33" value="" style="verticalLabelPosition=bottom;sketch=0;aspect=fixed;html=1;verticalAlign=top;strokeColor=none;align=center;outlineConnect=0;shape=mxgraph.citrix.cloud;" parent="1" vertex="1">
          <mxGeometry x="296.38" y="750" width="180" height="117.47" as="geometry" />
        </mxCell>
        <mxCell id="pAan9704VEjPBcL9PNMM-34" value="" style="verticalLabelPosition=bottom;sketch=0;aspect=fixed;html=1;verticalAlign=top;strokeColor=none;align=center;outlineConnect=0;shape=mxgraph.citrix.firewall;" parent="1" vertex="1">
          <mxGeometry x="216.38" y="853" width="48.39" height="60" as="geometry" />
        </mxCell>
        <mxCell id="pAan9704VEjPBcL9PNMM-36" value="" style="endArrow=classic;html=1;rounded=0;" parent="1" edge="1">
          <mxGeometry width="50" height="50" relative="1" as="geometry">
            <mxPoint x="166.38" y="960" as="sourcePoint" />
            <mxPoint x="216.38" y="910" as="targetPoint" />
          </mxGeometry>
        </mxCell>
        <mxCell id="pAan9704VEjPBcL9PNMM-38" value="" style="endArrow=classic;html=1;rounded=0;" parent="1" edge="1">
          <mxGeometry width="50" height="50" relative="1" as="geometry">
            <mxPoint x="276.38" y="870" as="sourcePoint" />
            <mxPoint x="316.38" y="850" as="targetPoint" />
          </mxGeometry>
        </mxCell>
        <mxCell id="pAan9704VEjPBcL9PNMM-39" value="访问" style="text;html=1;resizable=0;autosize=1;align=center;verticalAlign=middle;points=[];fillColor=none;strokeColor=none;rounded=0;" parent="1" vertex="1">
          <mxGeometry x="146.38" y="910" width="50" height="30" as="geometry" />
        </mxCell>
        <mxCell id="pAan9704VEjPBcL9PNMM-40" value="用户" style="text;html=1;resizable=0;autosize=1;align=center;verticalAlign=middle;points=[];fillColor=none;strokeColor=none;rounded=0;" parent="1" vertex="1">
          <mxGeometry x="86.38" y="1030" width="50" height="30" as="geometry" />
        </mxCell>
        <mxCell id="pAan9704VEjPBcL9PNMM-41" value="政务外网" style="text;html=1;resizable=0;autosize=1;align=center;verticalAlign=middle;points=[];fillColor=none;strokeColor=none;rounded=0;" parent="1" vertex="1">
          <mxGeometry x="346.38" y="800" width="70" height="30" as="geometry" />
        </mxCell>
        <mxCell id="pAan9704VEjPBcL9PNMM-42" value="" style="verticalLabelPosition=bottom;sketch=0;aspect=fixed;html=1;verticalAlign=top;strokeColor=none;align=center;outlineConnect=0;shape=mxgraph.citrix.license_server;" parent="1" vertex="1">
          <mxGeometry x="357.2300000000001" y="907" width="55.82" height="73" as="geometry" />
        </mxCell>
        <mxCell id="pAan9704VEjPBcL9PNMM-43" value="" style="verticalLabelPosition=bottom;sketch=0;aspect=fixed;html=1;verticalAlign=top;strokeColor=none;align=center;outlineConnect=0;shape=mxgraph.citrix.desktop;" parent="1" vertex="1">
          <mxGeometry x="106.38" y="950" width="63.57" height="70" as="geometry" />
        </mxCell>
        <mxCell id="pAan9704VEjPBcL9PNMM-44" value="" style="endArrow=classic;html=1;rounded=0;" parent="1" edge="1">
          <mxGeometry width="50" height="50" relative="1" as="geometry">
            <mxPoint x="384.82" y="859" as="sourcePoint" />
            <mxPoint x="384.38" y="900" as="targetPoint" />
          </mxGeometry>
        </mxCell>
        <mxCell id="pAan9704VEjPBcL9PNMM-45" value="Nginx服务器" style="text;html=1;resizable=0;autosize=1;align=center;verticalAlign=middle;points=[];fillColor=none;strokeColor=none;rounded=0;" parent="1" vertex="1">
          <mxGeometry x="340.76" y="974" width="90" height="30" as="geometry" />
        </mxCell>
        <mxCell id="pAan9704VEjPBcL9PNMM-47" value="" style="verticalLabelPosition=bottom;sketch=0;aspect=fixed;html=1;verticalAlign=top;strokeColor=none;align=center;outlineConnect=0;shape=mxgraph.citrix.license_server;" parent="1" vertex="1">
          <mxGeometry x="356.4700000000001" y="1050" width="55.82" height="73" as="geometry" />
        </mxCell>
        <mxCell id="pAan9704VEjPBcL9PNMM-48" value="安责险后端服务器" style="text;html=1;resizable=0;autosize=1;align=center;verticalAlign=middle;points=[];fillColor=none;strokeColor=none;rounded=0;" parent="1" vertex="1">
          <mxGeometry x="325" y="1117" width="120" height="30" as="geometry" />
        </mxCell>
        <mxCell id="pAan9704VEjPBcL9PNMM-49" value="" style="verticalLabelPosition=bottom;sketch=0;aspect=fixed;html=1;verticalAlign=top;strokeColor=none;align=center;outlineConnect=0;shape=mxgraph.citrix.database;" parent="1" vertex="1">
          <mxGeometry x="524.47" y="1050" width="52.5" height="61.76" as="geometry" />
        </mxCell>
        <mxCell id="pAan9704VEjPBcL9PNMM-50" value="达梦数据库DM8" style="text;html=1;resizable=0;autosize=1;align=center;verticalAlign=middle;points=[];fillColor=none;strokeColor=none;rounded=0;" parent="1" vertex="1">
          <mxGeometry x="504.47" y="1111.76" width="110" height="30" as="geometry" />
        </mxCell>
        <mxCell id="pAan9704VEjPBcL9PNMM-51" value="" style="endArrow=classic;html=1;rounded=0;" parent="1" edge="1">
          <mxGeometry width="50" height="50" relative="1" as="geometry">
            <mxPoint x="428" y="1090.88" as="sourcePoint" />
            <mxPoint x="514.47" y="1090" as="targetPoint" />
          </mxGeometry>
        </mxCell>
        <mxCell id="pAan9704VEjPBcL9PNMM-52" value="" style="verticalLabelPosition=bottom;sketch=0;aspect=fixed;html=1;verticalAlign=top;strokeColor=none;align=center;outlineConnect=0;shape=mxgraph.citrix.document;" parent="1" vertex="1">
          <mxGeometry x="506.92" y="899.5" width="37.86" height="58" as="geometry" />
        </mxCell>
        <mxCell id="pAan9704VEjPBcL9PNMM-53" value="安责险前端静态页面" style="text;html=1;resizable=0;autosize=1;align=center;verticalAlign=middle;points=[];fillColor=none;strokeColor=none;rounded=0;" parent="1" vertex="1">
          <mxGeometry x="460.85" y="957.5" width="130" height="30" as="geometry" />
        </mxCell>
        <mxCell id="pAan9704VEjPBcL9PNMM-54" value="" style="endArrow=open;endSize=12;dashed=1;html=1;rounded=0;" parent="1" edge="1">
          <mxGeometry width="160" relative="1" as="geometry">
            <mxPoint x="420.85" y="950" as="sourcePoint" />
            <mxPoint x="480.85" y="950" as="targetPoint" />
            <Array as="points">
              <mxPoint x="460.85" y="950" />
            </Array>
          </mxGeometry>
        </mxCell>
        <mxCell id="pAan9704VEjPBcL9PNMM-55" value="" style="endArrow=classic;html=1;rounded=0;" parent="1" edge="1">
          <mxGeometry width="50" height="50" relative="1" as="geometry">
            <mxPoint x="384.4" y="1004" as="sourcePoint" />
            <mxPoint x="383.96000000000015" y="1045" as="targetPoint" />
          </mxGeometry>
        </mxCell>
        <mxCell id="5VUR4jvpd3xTprFxyKOf-1" value="浏览器" style="shape=umlLifeline;perimeter=lifelinePerimeter;whiteSpace=wrap;html=1;container=1;collapsible=0;recursiveResize=0;outlineConnect=0;" parent="1" vertex="1">
          <mxGeometry x="820" y="90" width="110" height="580" as="geometry" />
        </mxCell>
        <mxCell id="5VUR4jvpd3xTprFxyKOf-2" value="" style="html=1;points=[];perimeter=orthogonalPerimeter;" parent="5VUR4jvpd3xTprFxyKOf-1" vertex="1">
          <mxGeometry x="50" y="59" width="10" height="441" as="geometry" />
        </mxCell>
        <mxCell id="5VUR4jvpd3xTprFxyKOf-3" value="用户访问权限资源" style="html=1;verticalAlign=bottom;startArrow=oval;startFill=1;endArrow=block;startSize=8;rounded=0;" parent="5VUR4jvpd3xTprFxyKOf-1" edge="1">
          <mxGeometry width="60" relative="1" as="geometry">
            <mxPoint x="60" y="59" as="sourcePoint" />
            <mxPoint x="254.49999999999977" y="59" as="targetPoint" />
          </mxGeometry>
        </mxCell>
        <mxCell id="5VUR4jvpd3xTprFxyKOf-4" value="统一身份认证" style="shape=umlLifeline;perimeter=lifelinePerimeter;whiteSpace=wrap;html=1;container=1;collapsible=0;recursiveResize=0;outlineConnect=0;" parent="1" vertex="1">
          <mxGeometry x="1220" y="90" width="110" height="580" as="geometry" />
        </mxCell>
        <mxCell id="5VUR4jvpd3xTprFxyKOf-5" value="" style="html=1;points=[];perimeter=orthogonalPerimeter;" parent="5VUR4jvpd3xTprFxyKOf-4" vertex="1">
          <mxGeometry x="50" y="109" width="10" height="50" as="geometry" />
        </mxCell>
        <mxCell id="5VUR4jvpd3xTprFxyKOf-6" value="验证未登录" style="edgeStyle=orthogonalEdgeStyle;html=1;align=left;spacingLeft=2;endArrow=block;rounded=0;entryX=1;entryY=0;" parent="5VUR4jvpd3xTprFxyKOf-4" edge="1">
          <mxGeometry relative="1" as="geometry">
            <mxPoint x="60" y="124" as="sourcePoint" />
            <Array as="points">
              <mxPoint x="85" y="124" />
            </Array>
            <mxPoint x="60" y="144" as="targetPoint" />
          </mxGeometry>
        </mxCell>
        <mxCell id="5VUR4jvpd3xTprFxyKOf-7" value="" style="html=1;points=[];perimeter=orthogonalPerimeter;" parent="5VUR4jvpd3xTprFxyKOf-4" vertex="1">
          <mxGeometry x="50" y="209" width="10" height="100" as="geometry" />
        </mxCell>
        <mxCell id="5VUR4jvpd3xTprFxyKOf-8" value="验证登录信息" style="edgeStyle=orthogonalEdgeStyle;html=1;align=left;spacingLeft=2;endArrow=block;rounded=0;entryX=1;entryY=0;" parent="5VUR4jvpd3xTprFxyKOf-4" edge="1">
          <mxGeometry relative="1" as="geometry">
            <mxPoint x="60" y="219" as="sourcePoint" />
            <Array as="points">
              <mxPoint x="85" y="219" />
            </Array>
            <mxPoint x="60" y="239" as="targetPoint" />
          </mxGeometry>
        </mxCell>
        <mxCell id="5VUR4jvpd3xTprFxyKOf-9" value="创建全局会话" style="edgeStyle=orthogonalEdgeStyle;html=1;align=left;spacingLeft=2;endArrow=block;rounded=0;entryX=1;entryY=0;" parent="5VUR4jvpd3xTprFxyKOf-4" edge="1">
          <mxGeometry relative="1" as="geometry">
            <mxPoint x="60" y="249" as="sourcePoint" />
            <Array as="points">
              <mxPoint x="85" y="249" />
            </Array>
            <mxPoint x="60" y="269" as="targetPoint" />
          </mxGeometry>
        </mxCell>
        <mxCell id="5VUR4jvpd3xTprFxyKOf-10" value="创建授权令牌" style="edgeStyle=orthogonalEdgeStyle;html=1;align=left;spacingLeft=2;endArrow=block;rounded=0;entryX=1;entryY=0;" parent="5VUR4jvpd3xTprFxyKOf-4" edge="1">
          <mxGeometry relative="1" as="geometry">
            <mxPoint x="60" y="279" as="sourcePoint" />
            <Array as="points">
              <mxPoint x="85" y="279" />
            </Array>
            <mxPoint x="60" y="299" as="targetPoint" />
          </mxGeometry>
        </mxCell>
        <mxCell id="5VUR4jvpd3xTprFxyKOf-11" value="" style="html=1;points=[];perimeter=orthogonalPerimeter;" parent="5VUR4jvpd3xTprFxyKOf-4" vertex="1">
          <mxGeometry x="50" y="334" width="10" height="70" as="geometry" />
        </mxCell>
        <mxCell id="5VUR4jvpd3xTprFxyKOf-12" value="令牌有效" style="edgeStyle=orthogonalEdgeStyle;html=1;align=left;spacingLeft=2;endArrow=block;rounded=0;entryX=1;entryY=0;" parent="5VUR4jvpd3xTprFxyKOf-4" edge="1">
          <mxGeometry relative="1" as="geometry">
            <mxPoint x="60" y="344" as="sourcePoint" />
            <Array as="points">
              <mxPoint x="85" y="344" />
            </Array>
            <mxPoint x="60" y="364" as="targetPoint" />
          </mxGeometry>
        </mxCell>
        <mxCell id="5VUR4jvpd3xTprFxyKOf-13" value="注册（电力大数据系统）" style="edgeStyle=orthogonalEdgeStyle;html=1;align=left;spacingLeft=2;endArrow=block;rounded=0;entryX=1;entryY=0;" parent="5VUR4jvpd3xTprFxyKOf-4" edge="1">
          <mxGeometry relative="1" as="geometry">
            <mxPoint x="60" y="371" as="sourcePoint" />
            <Array as="points">
              <mxPoint x="85" y="371" />
            </Array>
            <mxPoint x="60" y="391" as="targetPoint" />
          </mxGeometry>
        </mxCell>
        <mxCell id="5VUR4jvpd3xTprFxyKOf-14" value="电力大数据系统" style="shape=umlLifeline;perimeter=lifelinePerimeter;whiteSpace=wrap;html=1;container=1;collapsible=0;recursiveResize=0;outlineConnect=0;" parent="1" vertex="1">
          <mxGeometry x="1020" y="90" width="110" height="580" as="geometry" />
        </mxCell>
        <mxCell id="5VUR4jvpd3xTprFxyKOf-15" value="" style="html=1;points=[];perimeter=orthogonalPerimeter;" parent="5VUR4jvpd3xTprFxyKOf-14" vertex="1">
          <mxGeometry x="50" y="59" width="10" height="410" as="geometry" />
        </mxCell>
        <mxCell id="5VUR4jvpd3xTprFxyKOf-16" value="验证未登录" style="edgeStyle=orthogonalEdgeStyle;html=1;align=left;spacingLeft=2;endArrow=block;rounded=0;entryX=1;entryY=0;" parent="5VUR4jvpd3xTprFxyKOf-14" edge="1">
          <mxGeometry relative="1" as="geometry">
            <mxPoint x="60" y="59" as="sourcePoint" />
            <Array as="points">
              <mxPoint x="90" y="59" />
            </Array>
            <mxPoint x="65" y="79" as="targetPoint" />
          </mxGeometry>
        </mxCell>
        <mxCell id="5VUR4jvpd3xTprFxyKOf-17" value="访问认证中心" style="html=1;verticalAlign=bottom;endArrow=block;rounded=0;" parent="5VUR4jvpd3xTprFxyKOf-14" edge="1">
          <mxGeometry width="80" relative="1" as="geometry">
            <mxPoint x="60" y="109" as="sourcePoint" />
            <mxPoint x="254.49999999999977" y="109" as="targetPoint" />
          </mxGeometry>
        </mxCell>
        <mxCell id="5VUR4jvpd3xTprFxyKOf-18" value="令牌有效" style="html=1;verticalAlign=bottom;endArrow=open;dashed=1;endSize=8;rounded=0;" parent="5VUR4jvpd3xTprFxyKOf-14" edge="1">
          <mxGeometry relative="1" as="geometry">
            <mxPoint x="252.67000000000007" y="404" as="sourcePoint" />
            <mxPoint x="60" y="404" as="targetPoint" />
          </mxGeometry>
        </mxCell>
        <mxCell id="5VUR4jvpd3xTprFxyKOf-19" value="创建局部会话（令牌）" style="edgeStyle=orthogonalEdgeStyle;html=1;align=left;spacingLeft=2;endArrow=block;rounded=0;entryX=1;entryY=0;" parent="5VUR4jvpd3xTprFxyKOf-14" edge="1">
          <mxGeometry relative="1" as="geometry">
            <mxPoint x="60" y="429" as="sourcePoint" />
            <Array as="points">
              <mxPoint x="85" y="429" />
            </Array>
            <mxPoint x="60" y="449" as="targetPoint" />
          </mxGeometry>
        </mxCell>
        <mxCell id="5VUR4jvpd3xTprFxyKOf-20" value="重定向登录页" style="html=1;verticalAlign=bottom;endArrow=open;dashed=1;endSize=8;rounded=0;" parent="1" edge="1">
          <mxGeometry relative="1" as="geometry">
            <mxPoint x="1270" y="249" as="sourcePoint" />
            <mxPoint x="874.3888888888887" y="249" as="targetPoint" />
          </mxGeometry>
        </mxCell>
        <mxCell id="5VUR4jvpd3xTprFxyKOf-21" value="登录（用户名、密码、电力大数据系统地址）" style="html=1;verticalAlign=bottom;endArrow=block;rounded=0;" parent="1" edge="1">
          <mxGeometry width="80" relative="1" as="geometry">
            <mxPoint x="880" y="299" as="sourcePoint" />
            <mxPoint x="1280" y="299" as="targetPoint" />
          </mxGeometry>
        </mxCell>
        <mxCell id="5VUR4jvpd3xTprFxyKOf-22" value="跳转（令牌）" style="html=1;verticalAlign=bottom;endArrow=open;dashed=1;endSize=8;rounded=0;" parent="1" edge="1">
          <mxGeometry relative="1" as="geometry">
            <mxPoint x="1272.67" y="399" as="sourcePoint" />
            <mxPoint x="1080" y="399" as="targetPoint" />
          </mxGeometry>
        </mxCell>
        <mxCell id="5VUR4jvpd3xTprFxyKOf-23" value="校验（令牌、电力大数据系统地址）" style="html=1;verticalAlign=bottom;endArrow=block;rounded=0;" parent="1" edge="1">
          <mxGeometry width="80" relative="1" as="geometry">
            <mxPoint x="1080" y="424" as="sourcePoint" />
            <mxPoint x="1274.5" y="424" as="targetPoint" />
          </mxGeometry>
        </mxCell>
        <mxCell id="5VUR4jvpd3xTprFxyKOf-24" value="受保护资源" style="html=1;verticalAlign=bottom;endArrow=open;dashed=1;endSize=8;rounded=0;" parent="1" edge="1">
          <mxGeometry relative="1" as="geometry">
            <mxPoint x="1070" y="559" as="sourcePoint" />
            <mxPoint x="880" y="559" as="targetPoint" />
          </mxGeometry>
        </mxCell>
        <mxCell id="5VUR4jvpd3xTprFxyKOf-25" value="" style="shape=actor;whiteSpace=wrap;html=1;" parent="1" vertex="1">
          <mxGeometry x="860" y="980" width="30" height="40" as="geometry" />
        </mxCell>
        <mxCell id="5VUR4jvpd3xTprFxyKOf-26" value="" style="verticalLabelPosition=bottom;sketch=0;aspect=fixed;html=1;verticalAlign=top;strokeColor=none;align=center;outlineConnect=0;shape=mxgraph.citrix.cloud;" parent="1" vertex="1">
          <mxGeometry x="1090" y="750" width="180" height="117.47" as="geometry" />
        </mxCell>
        <mxCell id="5VUR4jvpd3xTprFxyKOf-27" value="" style="verticalLabelPosition=bottom;sketch=0;aspect=fixed;html=1;verticalAlign=top;strokeColor=none;align=center;outlineConnect=0;shape=mxgraph.citrix.firewall;" parent="1" vertex="1">
          <mxGeometry x="1010" y="853" width="48.39" height="60" as="geometry" />
        </mxCell>
        <mxCell id="5VUR4jvpd3xTprFxyKOf-28" value="" style="endArrow=classic;html=1;rounded=0;" parent="1" edge="1">
          <mxGeometry width="50" height="50" relative="1" as="geometry">
            <mxPoint x="960.0000000000001" y="960" as="sourcePoint" />
            <mxPoint x="1010.0000000000001" y="910" as="targetPoint" />
          </mxGeometry>
        </mxCell>
        <mxCell id="5VUR4jvpd3xTprFxyKOf-29" value="" style="endArrow=classic;html=1;rounded=0;" parent="1" edge="1">
          <mxGeometry width="50" height="50" relative="1" as="geometry">
            <mxPoint x="1070" y="870" as="sourcePoint" />
            <mxPoint x="1110" y="850" as="targetPoint" />
          </mxGeometry>
        </mxCell>
        <mxCell id="5VUR4jvpd3xTprFxyKOf-30" value="访问" style="text;html=1;resizable=0;autosize=1;align=center;verticalAlign=middle;points=[];fillColor=none;strokeColor=none;rounded=0;" parent="1" vertex="1">
          <mxGeometry x="940" y="910" width="50" height="30" as="geometry" />
        </mxCell>
        <mxCell id="5VUR4jvpd3xTprFxyKOf-31" value="用户" style="text;html=1;resizable=0;autosize=1;align=center;verticalAlign=middle;points=[];fillColor=none;strokeColor=none;rounded=0;" parent="1" vertex="1">
          <mxGeometry x="880" y="1030" width="50" height="30" as="geometry" />
        </mxCell>
        <mxCell id="5VUR4jvpd3xTprFxyKOf-32" value="政务外网" style="text;html=1;resizable=0;autosize=1;align=center;verticalAlign=middle;points=[];fillColor=none;strokeColor=none;rounded=0;" parent="1" vertex="1">
          <mxGeometry x="1140" y="800" width="70" height="30" as="geometry" />
        </mxCell>
        <mxCell id="5VUR4jvpd3xTprFxyKOf-33" value="" style="verticalLabelPosition=bottom;sketch=0;aspect=fixed;html=1;verticalAlign=top;strokeColor=none;align=center;outlineConnect=0;shape=mxgraph.citrix.license_server;" parent="1" vertex="1">
          <mxGeometry x="1150.8500000000001" y="907" width="55.82" height="73" as="geometry" />
        </mxCell>
        <mxCell id="5VUR4jvpd3xTprFxyKOf-34" value="" style="verticalLabelPosition=bottom;sketch=0;aspect=fixed;html=1;verticalAlign=top;strokeColor=none;align=center;outlineConnect=0;shape=mxgraph.citrix.desktop;" parent="1" vertex="1">
          <mxGeometry x="900" y="950" width="63.57" height="70" as="geometry" />
        </mxCell>
        <mxCell id="5VUR4jvpd3xTprFxyKOf-35" value="" style="endArrow=classic;html=1;rounded=0;" parent="1" edge="1">
          <mxGeometry width="50" height="50" relative="1" as="geometry">
            <mxPoint x="1178.44" y="859" as="sourcePoint" />
            <mxPoint x="1178" y="900" as="targetPoint" />
          </mxGeometry>
        </mxCell>
        <mxCell id="5VUR4jvpd3xTprFxyKOf-36" value="Nginx服务器" style="text;html=1;resizable=0;autosize=1;align=center;verticalAlign=middle;points=[];fillColor=none;strokeColor=none;rounded=0;" parent="1" vertex="1">
          <mxGeometry x="1134.38" y="974" width="90" height="30" as="geometry" />
        </mxCell>
        <mxCell id="5VUR4jvpd3xTprFxyKOf-37" value="" style="verticalLabelPosition=bottom;sketch=0;aspect=fixed;html=1;verticalAlign=top;strokeColor=none;align=center;outlineConnect=0;shape=mxgraph.citrix.license_server;" parent="1" vertex="1">
          <mxGeometry x="1150.0900000000001" y="1050" width="55.82" height="73" as="geometry" />
        </mxCell>
        <mxCell id="5VUR4jvpd3xTprFxyKOf-38" value="电力大数据后端服务器" style="text;html=1;resizable=0;autosize=1;align=center;verticalAlign=middle;points=[];fillColor=none;strokeColor=none;rounded=0;" parent="1" vertex="1">
          <mxGeometry x="1108.62" y="1117" width="140" height="30" as="geometry" />
        </mxCell>
        <mxCell id="5VUR4jvpd3xTprFxyKOf-39" value="" style="verticalLabelPosition=bottom;sketch=0;aspect=fixed;html=1;verticalAlign=top;strokeColor=none;align=center;outlineConnect=0;shape=mxgraph.citrix.database;" parent="1" vertex="1">
          <mxGeometry x="1318.0900000000001" y="1050" width="52.5" height="61.76" as="geometry" />
        </mxCell>
        <mxCell id="5VUR4jvpd3xTprFxyKOf-40" value="达梦数据库DM8" style="text;html=1;resizable=0;autosize=1;align=center;verticalAlign=middle;points=[];fillColor=none;strokeColor=none;rounded=0;" parent="1" vertex="1">
          <mxGeometry x="1298.0900000000001" y="1111.76" width="110" height="30" as="geometry" />
        </mxCell>
        <mxCell id="5VUR4jvpd3xTprFxyKOf-41" value="" style="endArrow=classic;html=1;rounded=0;" parent="1" edge="1">
          <mxGeometry width="50" height="50" relative="1" as="geometry">
            <mxPoint x="1221.62" y="1090.88" as="sourcePoint" />
            <mxPoint x="1308.0900000000001" y="1090" as="targetPoint" />
          </mxGeometry>
        </mxCell>
        <mxCell id="5VUR4jvpd3xTprFxyKOf-42" value="" style="verticalLabelPosition=bottom;sketch=0;aspect=fixed;html=1;verticalAlign=top;strokeColor=none;align=center;outlineConnect=0;shape=mxgraph.citrix.document;" parent="1" vertex="1">
          <mxGeometry x="1300.54" y="899.5" width="37.86" height="58" as="geometry" />
        </mxCell>
        <mxCell id="5VUR4jvpd3xTprFxyKOf-43" value="电力大数据前端静态页面" style="text;html=1;resizable=0;autosize=1;align=center;verticalAlign=middle;points=[];fillColor=none;strokeColor=none;rounded=0;" parent="1" vertex="1">
          <mxGeometry x="1239.47" y="957.5" width="160" height="30" as="geometry" />
        </mxCell>
        <mxCell id="5VUR4jvpd3xTprFxyKOf-44" value="" style="endArrow=open;endSize=12;dashed=1;html=1;rounded=0;" parent="1" edge="1">
          <mxGeometry width="160" relative="1" as="geometry">
            <mxPoint x="1214.4699999999998" y="950" as="sourcePoint" />
            <mxPoint x="1274.4699999999998" y="950" as="targetPoint" />
            <Array as="points">
              <mxPoint x="1254.47" y="950" />
            </Array>
          </mxGeometry>
        </mxCell>
        <mxCell id="5VUR4jvpd3xTprFxyKOf-45" value="" style="endArrow=classic;html=1;rounded=0;" parent="1" edge="1">
          <mxGeometry width="50" height="50" relative="1" as="geometry">
            <mxPoint x="1178.02" y="1004" as="sourcePoint" />
            <mxPoint x="1177.58" y="1045" as="targetPoint" />
          </mxGeometry>
        </mxCell>
        <mxCell id="5VUR4jvpd3xTprFxyKOf-47" value="（处理过程）&lt;br&gt;聚合分析&lt;br&gt;关联查询" style="rounded=0;whiteSpace=wrap;html=1;" parent="1" vertex="1">
          <mxGeometry x="300" y="1325" width="189.24" height="130" as="geometry" />
        </mxCell>
        <mxCell id="5VUR4jvpd3xTprFxyKOf-48" value="（输入）&lt;br&gt;机构名称&lt;br&gt;社会信用代码&lt;br&gt;发生时间&lt;br&gt;行业分类&lt;br&gt;事故分类" style="shape=step;perimeter=stepPerimeter;whiteSpace=wrap;html=1;fixedSize=1;" parent="1" vertex="1">
          <mxGeometry x="36.379999999999995" y="1320" width="180" height="140" as="geometry" />
        </mxCell>
        <mxCell id="5VUR4jvpd3xTprFxyKOf-49" value="" style="shape=flexArrow;endArrow=classic;html=1;rounded=0;" parent="1" edge="1">
          <mxGeometry width="50" height="50" relative="1" as="geometry">
            <mxPoint x="506.92" y="1389.6599999999999" as="sourcePoint" />
            <mxPoint x="566.9200000000001" y="1389.6599999999999" as="targetPoint" />
          </mxGeometry>
        </mxCell>
        <mxCell id="5VUR4jvpd3xTprFxyKOf-50" value="企业信息、投保信息&lt;br&gt;理赔信息、事故服务信息、&lt;br&gt;保险机构信息、服务机构信息、&lt;br&gt;保险经纪公司信息" style="shape=dataStorage;whiteSpace=wrap;html=1;fixedSize=1;" parent="1" vertex="1">
          <mxGeometry x="580" y="1322.5" width="210" height="135" as="geometry" />
        </mxCell>
        <mxCell id="GnOXL0nsnhSy4p_M0rOt-2" value="" style="shape=flexArrow;endArrow=classic;html=1;rounded=0;" parent="1" edge="1">
          <mxGeometry width="50" height="50" relative="1" as="geometry">
            <mxPoint x="230.00000000000023" y="1389.66" as="sourcePoint" />
            <mxPoint x="290.0000000000002" y="1389.66" as="targetPoint" />
          </mxGeometry>
        </mxCell>
        <mxCell id="GnOXL0nsnhSy4p_M0rOt-3" value="&lt;span style=&quot;font-size:12.0pt;line-height:150%;&lt;br/&gt;font-family:宋体;mso-ascii-font-family:&amp;quot;Times New Roman&amp;quot;;mso-hansi-font-family:&lt;br/&gt;&amp;quot;Times New Roman&amp;quot;;mso-bidi-font-family:&amp;quot;Times New Roman&amp;quot;;mso-font-kerning:1.0pt;&lt;br/&gt;mso-ansi-language:EN-US;mso-fareast-language:ZH-CN;mso-bidi-language:AR-SA&quot;&gt;详设程序流程&lt;/span&gt;" style="rounded=0;whiteSpace=wrap;html=1;" parent="1" vertex="1">
          <mxGeometry x="50" y="1250" width="285" height="20" as="geometry" />
        </mxCell>
        <mxCell id="GnOXL0nsnhSy4p_M0rOt-4" value="&lt;span&gt;部署图&lt;/span&gt;" style="rounded=0;whiteSpace=wrap;html=1;" parent="1" vertex="1">
          <mxGeometry x="50" y="670" width="285" height="20" as="geometry" />
        </mxCell>
        <mxCell id="GnOXL0nsnhSy4p_M0rOt-5" value="登录时序图" style="rounded=0;whiteSpace=wrap;html=1;" parent="1" vertex="1">
          <mxGeometry x="28.88" y="20" width="285" height="20" as="geometry" />
        </mxCell>
        <mxCell id="GnOXL0nsnhSy4p_M0rOt-6" value="（处理过程）&lt;br&gt;聚合分析" style="rounded=0;whiteSpace=wrap;html=1;" parent="1" vertex="1">
          <mxGeometry x="300" y="1495" width="189.24" height="130" as="geometry" />
        </mxCell>
        <mxCell id="GnOXL0nsnhSy4p_M0rOt-7" value="（输入）&lt;br&gt;行政区划&lt;br&gt;时间段&lt;br&gt;用户信息&lt;br&gt;辖区" style="shape=step;perimeter=stepPerimeter;whiteSpace=wrap;html=1;fixedSize=1;" parent="1" vertex="1">
          <mxGeometry x="36.379999999999995" y="1490" width="180" height="140" as="geometry" />
        </mxCell>
        <mxCell id="GnOXL0nsnhSy4p_M0rOt-8" value="" style="shape=flexArrow;endArrow=classic;html=1;rounded=0;" parent="1" edge="1">
          <mxGeometry width="50" height="50" relative="1" as="geometry">
            <mxPoint x="506.9200000000003" y="1559.6599999999999" as="sourcePoint" />
            <mxPoint x="566.9199999999998" y="1559.6599999999999" as="targetPoint" />
          </mxGeometry>
        </mxCell>
        <mxCell id="GnOXL0nsnhSy4p_M0rOt-9" value="辖区投保情况分析&lt;br&gt;辖区风控情况分析&lt;br&gt;保险机构信息&lt;br&gt;投保情况分析&lt;br&gt;投保率地图可视化" style="shape=dataStorage;whiteSpace=wrap;html=1;fixedSize=1;" parent="1" vertex="1">
          <mxGeometry x="576.97" y="1492.5" width="210" height="135" as="geometry" />
        </mxCell>
        <mxCell id="GnOXL0nsnhSy4p_M0rOt-10" value="" style="shape=flexArrow;endArrow=classic;html=1;rounded=0;" parent="1" edge="1">
          <mxGeometry width="50" height="50" relative="1" as="geometry">
            <mxPoint x="230.00000000000045" y="1559.66" as="sourcePoint" />
            <mxPoint x="290" y="1559.66" as="targetPoint" />
          </mxGeometry>
        </mxCell>
        <mxCell id="pzzw7nvtaeHo-amtORk9-1" value="" style="shape=actor;whiteSpace=wrap;html=1;" vertex="1" parent="1">
          <mxGeometry x="1541.8" y="960" width="30" height="40" as="geometry" />
        </mxCell>
        <mxCell id="pzzw7nvtaeHo-amtORk9-2" value="" style="verticalLabelPosition=bottom;sketch=0;aspect=fixed;html=1;verticalAlign=top;strokeColor=none;align=center;outlineConnect=0;shape=mxgraph.citrix.cloud;" vertex="1" parent="1">
          <mxGeometry x="1771.8" y="730" width="180" height="117.47" as="geometry" />
        </mxCell>
        <mxCell id="pzzw7nvtaeHo-amtORk9-3" value="" style="verticalLabelPosition=bottom;sketch=0;aspect=fixed;html=1;verticalAlign=top;strokeColor=none;align=center;outlineConnect=0;shape=mxgraph.citrix.firewall;" vertex="1" parent="1">
          <mxGeometry x="1691.8" y="833" width="48.39" height="60" as="geometry" />
        </mxCell>
        <mxCell id="pzzw7nvtaeHo-amtORk9-4" value="" style="endArrow=classic;html=1;rounded=0;" edge="1" parent="1">
          <mxGeometry width="50" height="50" relative="1" as="geometry">
            <mxPoint x="1641.8" y="940" as="sourcePoint" />
            <mxPoint x="1691.8" y="890" as="targetPoint" />
          </mxGeometry>
        </mxCell>
        <mxCell id="pzzw7nvtaeHo-amtORk9-5" value="" style="endArrow=classic;html=1;rounded=0;" edge="1" parent="1">
          <mxGeometry width="50" height="50" relative="1" as="geometry">
            <mxPoint x="1751.8" y="850" as="sourcePoint" />
            <mxPoint x="1791.8" y="830" as="targetPoint" />
          </mxGeometry>
        </mxCell>
        <mxCell id="pzzw7nvtaeHo-amtORk9-6" value="访问" style="text;html=1;resizable=0;autosize=1;align=center;verticalAlign=middle;points=[];fillColor=none;strokeColor=none;rounded=0;" vertex="1" parent="1">
          <mxGeometry x="1621.8" y="890" width="50" height="30" as="geometry" />
        </mxCell>
        <mxCell id="pzzw7nvtaeHo-amtORk9-7" value="用户" style="text;html=1;resizable=0;autosize=1;align=center;verticalAlign=middle;points=[];fillColor=none;strokeColor=none;rounded=0;" vertex="1" parent="1">
          <mxGeometry x="1561.8" y="1010" width="50" height="30" as="geometry" />
        </mxCell>
        <mxCell id="pzzw7nvtaeHo-amtORk9-8" value="指挥网" style="text;html=1;resizable=0;autosize=1;align=center;verticalAlign=middle;points=[];fillColor=none;strokeColor=none;rounded=0;" vertex="1" parent="1">
          <mxGeometry x="1826.8" y="780" width="60" height="30" as="geometry" />
        </mxCell>
        <mxCell id="pzzw7nvtaeHo-amtORk9-9" value="" style="verticalLabelPosition=bottom;sketch=0;aspect=fixed;html=1;verticalAlign=top;strokeColor=none;align=center;outlineConnect=0;shape=mxgraph.citrix.license_server;" vertex="1" parent="1">
          <mxGeometry x="1832.65" y="887" width="55.82" height="73" as="geometry" />
        </mxCell>
        <mxCell id="pzzw7nvtaeHo-amtORk9-10" value="" style="verticalLabelPosition=bottom;sketch=0;aspect=fixed;html=1;verticalAlign=top;strokeColor=none;align=center;outlineConnect=0;shape=mxgraph.citrix.desktop;" vertex="1" parent="1">
          <mxGeometry x="1581.8" y="930" width="63.57" height="70" as="geometry" />
        </mxCell>
        <mxCell id="pzzw7nvtaeHo-amtORk9-11" value="" style="endArrow=classic;html=1;rounded=0;" edge="1" parent="1">
          <mxGeometry width="50" height="50" relative="1" as="geometry">
            <mxPoint x="1860.2400000000005" y="839" as="sourcePoint" />
            <mxPoint x="1859.8" y="880" as="targetPoint" />
          </mxGeometry>
        </mxCell>
        <mxCell id="pzzw7nvtaeHo-amtORk9-12" value="Nginx服务器" style="text;html=1;resizable=0;autosize=1;align=center;verticalAlign=middle;points=[];fillColor=none;strokeColor=none;rounded=0;" vertex="1" parent="1">
          <mxGeometry x="1816.18" y="954" width="90" height="30" as="geometry" />
        </mxCell>
        <mxCell id="pzzw7nvtaeHo-amtORk9-13" value="" style="verticalLabelPosition=bottom;sketch=0;aspect=fixed;html=1;verticalAlign=top;strokeColor=none;align=center;outlineConnect=0;shape=mxgraph.citrix.license_server;" vertex="1" parent="1">
          <mxGeometry x="1831.89" y="1030" width="55.82" height="73" as="geometry" />
        </mxCell>
        <mxCell id="pzzw7nvtaeHo-amtORk9-14" value="门户后端服务器" style="text;html=1;resizable=0;autosize=1;align=center;verticalAlign=middle;points=[];fillColor=none;strokeColor=none;rounded=0;" vertex="1" parent="1">
          <mxGeometry x="1805.4199999999998" y="1097" width="110" height="30" as="geometry" />
        </mxCell>
        <mxCell id="pzzw7nvtaeHo-amtORk9-15" value="" style="verticalLabelPosition=bottom;sketch=0;aspect=fixed;html=1;verticalAlign=top;strokeColor=none;align=center;outlineConnect=0;shape=mxgraph.citrix.database;" vertex="1" parent="1">
          <mxGeometry x="1999.89" y="1030" width="52.5" height="61.76" as="geometry" />
        </mxCell>
        <mxCell id="pzzw7nvtaeHo-amtORk9-16" value="达梦数据库DM8" style="text;html=1;resizable=0;autosize=1;align=center;verticalAlign=middle;points=[];fillColor=none;strokeColor=none;rounded=0;" vertex="1" parent="1">
          <mxGeometry x="1979.89" y="1091.76" width="110" height="30" as="geometry" />
        </mxCell>
        <mxCell id="pzzw7nvtaeHo-amtORk9-17" value="" style="endArrow=classic;html=1;rounded=0;" edge="1" parent="1">
          <mxGeometry width="50" height="50" relative="1" as="geometry">
            <mxPoint x="1903.4200000000003" y="1070.88" as="sourcePoint" />
            <mxPoint x="1989.89" y="1070" as="targetPoint" />
          </mxGeometry>
        </mxCell>
        <mxCell id="pzzw7nvtaeHo-amtORk9-18" value="" style="verticalLabelPosition=bottom;sketch=0;aspect=fixed;html=1;verticalAlign=top;strokeColor=none;align=center;outlineConnect=0;shape=mxgraph.citrix.document;" vertex="1" parent="1">
          <mxGeometry x="1982.34" y="879.5" width="37.86" height="58" as="geometry" />
        </mxCell>
        <mxCell id="pzzw7nvtaeHo-amtORk9-19" value="门户前端静态页面" style="text;html=1;resizable=0;autosize=1;align=center;verticalAlign=middle;points=[];fillColor=none;strokeColor=none;rounded=0;" vertex="1" parent="1">
          <mxGeometry x="1941.27" y="937.5" width="120" height="30" as="geometry" />
        </mxCell>
        <mxCell id="pzzw7nvtaeHo-amtORk9-20" value="" style="endArrow=open;endSize=12;dashed=1;html=1;rounded=0;" edge="1" parent="1">
          <mxGeometry width="160" relative="1" as="geometry">
            <mxPoint x="1896.2699999999998" y="930" as="sourcePoint" />
            <mxPoint x="1956.2699999999998" y="930" as="targetPoint" />
            <Array as="points">
              <mxPoint x="1936.27" y="930" />
            </Array>
          </mxGeometry>
        </mxCell>
        <mxCell id="pzzw7nvtaeHo-amtORk9-21" value="" style="endArrow=classic;html=1;rounded=0;" edge="1" parent="1">
          <mxGeometry width="50" height="50" relative="1" as="geometry">
            <mxPoint x="1859.82" y="984" as="sourcePoint" />
            <mxPoint x="1859.3800000000003" y="1025" as="targetPoint" />
          </mxGeometry>
        </mxCell>
        <mxCell id="pzzw7nvtaeHo-amtORk9-46" value="浏览器" style="shape=umlLifeline;perimeter=lifelinePerimeter;whiteSpace=wrap;html=1;container=1;collapsible=0;recursiveResize=0;outlineConnect=0;" vertex="1" parent="1">
          <mxGeometry x="1560.85" y="90" width="110" height="580" as="geometry" />
        </mxCell>
        <mxCell id="pzzw7nvtaeHo-amtORk9-47" value="" style="html=1;points=[];perimeter=orthogonalPerimeter;" vertex="1" parent="pzzw7nvtaeHo-amtORk9-46">
          <mxGeometry x="50" y="59" width="10" height="441" as="geometry" />
        </mxCell>
        <mxCell id="pzzw7nvtaeHo-amtORk9-48" value="用户访问权限资源" style="html=1;verticalAlign=bottom;startArrow=oval;startFill=1;endArrow=block;startSize=8;rounded=0;" edge="1" parent="pzzw7nvtaeHo-amtORk9-46">
          <mxGeometry width="60" relative="1" as="geometry">
            <mxPoint x="60" y="59" as="sourcePoint" />
            <mxPoint x="254.49999999999977" y="59" as="targetPoint" />
          </mxGeometry>
        </mxCell>
        <mxCell id="pzzw7nvtaeHo-amtORk9-49" value="统一身份认证" style="shape=umlLifeline;perimeter=lifelinePerimeter;whiteSpace=wrap;html=1;container=1;collapsible=0;recursiveResize=0;outlineConnect=0;" vertex="1" parent="1">
          <mxGeometry x="1960.85" y="90" width="110" height="580" as="geometry" />
        </mxCell>
        <mxCell id="pzzw7nvtaeHo-amtORk9-50" value="" style="html=1;points=[];perimeter=orthogonalPerimeter;" vertex="1" parent="pzzw7nvtaeHo-amtORk9-49">
          <mxGeometry x="50" y="109" width="10" height="50" as="geometry" />
        </mxCell>
        <mxCell id="pzzw7nvtaeHo-amtORk9-51" value="验证未登录" style="edgeStyle=orthogonalEdgeStyle;html=1;align=left;spacingLeft=2;endArrow=block;rounded=0;entryX=1;entryY=0;" edge="1" parent="pzzw7nvtaeHo-amtORk9-49">
          <mxGeometry relative="1" as="geometry">
            <mxPoint x="60" y="124" as="sourcePoint" />
            <Array as="points">
              <mxPoint x="85" y="124" />
            </Array>
            <mxPoint x="60" y="144" as="targetPoint" />
          </mxGeometry>
        </mxCell>
        <mxCell id="pzzw7nvtaeHo-amtORk9-52" value="" style="html=1;points=[];perimeter=orthogonalPerimeter;" vertex="1" parent="pzzw7nvtaeHo-amtORk9-49">
          <mxGeometry x="50" y="209" width="10" height="100" as="geometry" />
        </mxCell>
        <mxCell id="pzzw7nvtaeHo-amtORk9-53" value="验证登录信息" style="edgeStyle=orthogonalEdgeStyle;html=1;align=left;spacingLeft=2;endArrow=block;rounded=0;entryX=1;entryY=0;" edge="1" parent="pzzw7nvtaeHo-amtORk9-49">
          <mxGeometry relative="1" as="geometry">
            <mxPoint x="60" y="219" as="sourcePoint" />
            <Array as="points">
              <mxPoint x="85" y="219" />
            </Array>
            <mxPoint x="60" y="239" as="targetPoint" />
          </mxGeometry>
        </mxCell>
        <mxCell id="pzzw7nvtaeHo-amtORk9-54" value="创建全局会话" style="edgeStyle=orthogonalEdgeStyle;html=1;align=left;spacingLeft=2;endArrow=block;rounded=0;entryX=1;entryY=0;" edge="1" parent="pzzw7nvtaeHo-amtORk9-49">
          <mxGeometry relative="1" as="geometry">
            <mxPoint x="60" y="249" as="sourcePoint" />
            <Array as="points">
              <mxPoint x="85" y="249" />
            </Array>
            <mxPoint x="60" y="269" as="targetPoint" />
          </mxGeometry>
        </mxCell>
        <mxCell id="pzzw7nvtaeHo-amtORk9-55" value="创建授权令牌" style="edgeStyle=orthogonalEdgeStyle;html=1;align=left;spacingLeft=2;endArrow=block;rounded=0;entryX=1;entryY=0;" edge="1" parent="pzzw7nvtaeHo-amtORk9-49">
          <mxGeometry relative="1" as="geometry">
            <mxPoint x="60" y="279" as="sourcePoint" />
            <Array as="points">
              <mxPoint x="85" y="279" />
            </Array>
            <mxPoint x="60" y="299" as="targetPoint" />
          </mxGeometry>
        </mxCell>
        <mxCell id="pzzw7nvtaeHo-amtORk9-56" value="" style="html=1;points=[];perimeter=orthogonalPerimeter;" vertex="1" parent="pzzw7nvtaeHo-amtORk9-49">
          <mxGeometry x="50" y="334" width="10" height="70" as="geometry" />
        </mxCell>
        <mxCell id="pzzw7nvtaeHo-amtORk9-57" value="令牌有效" style="edgeStyle=orthogonalEdgeStyle;html=1;align=left;spacingLeft=2;endArrow=block;rounded=0;entryX=1;entryY=0;" edge="1" parent="pzzw7nvtaeHo-amtORk9-49">
          <mxGeometry relative="1" as="geometry">
            <mxPoint x="60" y="344" as="sourcePoint" />
            <Array as="points">
              <mxPoint x="85" y="344" />
            </Array>
            <mxPoint x="60" y="364" as="targetPoint" />
          </mxGeometry>
        </mxCell>
        <mxCell id="pzzw7nvtaeHo-amtORk9-58" value="注册（门户系统）" style="edgeStyle=orthogonalEdgeStyle;html=1;align=left;spacingLeft=2;endArrow=block;rounded=0;entryX=1;entryY=0;" edge="1" parent="pzzw7nvtaeHo-amtORk9-49">
          <mxGeometry relative="1" as="geometry">
            <mxPoint x="60" y="371" as="sourcePoint" />
            <Array as="points">
              <mxPoint x="85" y="371" />
            </Array>
            <mxPoint x="60" y="391" as="targetPoint" />
          </mxGeometry>
        </mxCell>
        <mxCell id="pzzw7nvtaeHo-amtORk9-59" value="门户" style="shape=umlLifeline;perimeter=lifelinePerimeter;whiteSpace=wrap;html=1;container=1;collapsible=0;recursiveResize=0;outlineConnect=0;" vertex="1" parent="1">
          <mxGeometry x="1760.85" y="90" width="110" height="580" as="geometry" />
        </mxCell>
        <mxCell id="pzzw7nvtaeHo-amtORk9-60" value="" style="html=1;points=[];perimeter=orthogonalPerimeter;" vertex="1" parent="pzzw7nvtaeHo-amtORk9-59">
          <mxGeometry x="50" y="59" width="10" height="410" as="geometry" />
        </mxCell>
        <mxCell id="pzzw7nvtaeHo-amtORk9-61" value="验证未登录" style="edgeStyle=orthogonalEdgeStyle;html=1;align=left;spacingLeft=2;endArrow=block;rounded=0;entryX=1;entryY=0;" edge="1" parent="pzzw7nvtaeHo-amtORk9-59">
          <mxGeometry relative="1" as="geometry">
            <mxPoint x="60" y="59" as="sourcePoint" />
            <Array as="points">
              <mxPoint x="90" y="59" />
            </Array>
            <mxPoint x="65" y="79" as="targetPoint" />
          </mxGeometry>
        </mxCell>
        <mxCell id="pzzw7nvtaeHo-amtORk9-62" value="访问认证中心" style="html=1;verticalAlign=bottom;endArrow=block;rounded=0;" edge="1" parent="pzzw7nvtaeHo-amtORk9-59">
          <mxGeometry width="80" relative="1" as="geometry">
            <mxPoint x="60" y="109" as="sourcePoint" />
            <mxPoint x="254.49999999999977" y="109" as="targetPoint" />
          </mxGeometry>
        </mxCell>
        <mxCell id="pzzw7nvtaeHo-amtORk9-63" value="令牌有效" style="html=1;verticalAlign=bottom;endArrow=open;dashed=1;endSize=8;rounded=0;" edge="1" parent="pzzw7nvtaeHo-amtORk9-59">
          <mxGeometry relative="1" as="geometry">
            <mxPoint x="252.67000000000007" y="404" as="sourcePoint" />
            <mxPoint x="60" y="404" as="targetPoint" />
          </mxGeometry>
        </mxCell>
        <mxCell id="pzzw7nvtaeHo-amtORk9-64" value="创建局部会话（令牌）" style="edgeStyle=orthogonalEdgeStyle;html=1;align=left;spacingLeft=2;endArrow=block;rounded=0;entryX=1;entryY=0;" edge="1" parent="pzzw7nvtaeHo-amtORk9-59">
          <mxGeometry relative="1" as="geometry">
            <mxPoint x="60" y="429" as="sourcePoint" />
            <Array as="points">
              <mxPoint x="85" y="429" />
            </Array>
            <mxPoint x="60" y="449" as="targetPoint" />
          </mxGeometry>
        </mxCell>
        <mxCell id="pzzw7nvtaeHo-amtORk9-65" value="重定向登录页" style="html=1;verticalAlign=bottom;endArrow=open;dashed=1;endSize=8;rounded=0;" edge="1" parent="1">
          <mxGeometry relative="1" as="geometry">
            <mxPoint x="2010.85" y="249" as="sourcePoint" />
            <mxPoint x="1615.2388888888886" y="249" as="targetPoint" />
          </mxGeometry>
        </mxCell>
        <mxCell id="pzzw7nvtaeHo-amtORk9-66" value="登录（用户名、密码、&lt;span style=&quot;font-size: 12px; background-color: rgb(248, 249, 250);&quot;&gt;门户&lt;/span&gt;系统地址）" style="html=1;verticalAlign=bottom;endArrow=block;rounded=0;" edge="1" parent="1">
          <mxGeometry width="80" relative="1" as="geometry">
            <mxPoint x="1620.85" y="299" as="sourcePoint" />
            <mxPoint x="2020.85" y="299" as="targetPoint" />
          </mxGeometry>
        </mxCell>
        <mxCell id="pzzw7nvtaeHo-amtORk9-67" value="跳转（令牌）" style="html=1;verticalAlign=bottom;endArrow=open;dashed=1;endSize=8;rounded=0;" edge="1" parent="1">
          <mxGeometry relative="1" as="geometry">
            <mxPoint x="2013.52" y="399" as="sourcePoint" />
            <mxPoint x="1820.85" y="399" as="targetPoint" />
          </mxGeometry>
        </mxCell>
        <mxCell id="pzzw7nvtaeHo-amtORk9-68" value="校验（令牌、门户系统地址）" style="html=1;verticalAlign=bottom;endArrow=block;rounded=0;" edge="1" parent="1">
          <mxGeometry width="80" relative="1" as="geometry">
            <mxPoint x="1820.85" y="424" as="sourcePoint" />
            <mxPoint x="2015.35" y="424" as="targetPoint" />
          </mxGeometry>
        </mxCell>
        <mxCell id="pzzw7nvtaeHo-amtORk9-69" value="受保护资源" style="html=1;verticalAlign=bottom;endArrow=open;dashed=1;endSize=8;rounded=0;" edge="1" parent="1">
          <mxGeometry relative="1" as="geometry">
            <mxPoint x="1810.85" y="559" as="sourcePoint" />
            <mxPoint x="1620.85" y="559" as="targetPoint" />
          </mxGeometry>
        </mxCell>
        <mxCell id="pzzw7nvtaeHo-amtORk9-91" value="" style="shape=actor;whiteSpace=wrap;html=1;" vertex="1" parent="1">
          <mxGeometry x="1561.8" y="1550" width="30" height="40" as="geometry" />
        </mxCell>
        <mxCell id="pzzw7nvtaeHo-amtORk9-92" value="" style="verticalLabelPosition=bottom;sketch=0;aspect=fixed;html=1;verticalAlign=top;strokeColor=none;align=center;outlineConnect=0;shape=mxgraph.citrix.cloud;" vertex="1" parent="1">
          <mxGeometry x="1791.8" y="1320" width="180" height="117.47" as="geometry" />
        </mxCell>
        <mxCell id="pzzw7nvtaeHo-amtORk9-93" value="" style="verticalLabelPosition=bottom;sketch=0;aspect=fixed;html=1;verticalAlign=top;strokeColor=none;align=center;outlineConnect=0;shape=mxgraph.citrix.firewall;" vertex="1" parent="1">
          <mxGeometry x="1711.8" y="1423" width="48.39" height="60" as="geometry" />
        </mxCell>
        <mxCell id="pzzw7nvtaeHo-amtORk9-94" value="" style="endArrow=classic;html=1;rounded=0;" edge="1" parent="1">
          <mxGeometry width="50" height="50" relative="1" as="geometry">
            <mxPoint x="1661.8000000000002" y="1530" as="sourcePoint" />
            <mxPoint x="1711.8000000000002" y="1480" as="targetPoint" />
          </mxGeometry>
        </mxCell>
        <mxCell id="pzzw7nvtaeHo-amtORk9-95" value="" style="endArrow=classic;html=1;rounded=0;" edge="1" parent="1">
          <mxGeometry width="50" height="50" relative="1" as="geometry">
            <mxPoint x="1771.8000000000002" y="1440" as="sourcePoint" />
            <mxPoint x="1811.8000000000002" y="1420" as="targetPoint" />
          </mxGeometry>
        </mxCell>
        <mxCell id="pzzw7nvtaeHo-amtORk9-96" value="访问" style="text;html=1;resizable=0;autosize=1;align=center;verticalAlign=middle;points=[];fillColor=none;strokeColor=none;rounded=0;" vertex="1" parent="1">
          <mxGeometry x="1641.8" y="1480" width="50" height="30" as="geometry" />
        </mxCell>
        <mxCell id="pzzw7nvtaeHo-amtORk9-97" value="用户" style="text;html=1;resizable=0;autosize=1;align=center;verticalAlign=middle;points=[];fillColor=none;strokeColor=none;rounded=0;" vertex="1" parent="1">
          <mxGeometry x="1581.8" y="1600" width="50" height="30" as="geometry" />
        </mxCell>
        <mxCell id="pzzw7nvtaeHo-amtORk9-98" value="指挥网" style="text;html=1;resizable=0;autosize=1;align=center;verticalAlign=middle;points=[];fillColor=none;strokeColor=none;rounded=0;" vertex="1" parent="1">
          <mxGeometry x="1846.8" y="1370" width="60" height="30" as="geometry" />
        </mxCell>
        <mxCell id="pzzw7nvtaeHo-amtORk9-99" value="" style="verticalLabelPosition=bottom;sketch=0;aspect=fixed;html=1;verticalAlign=top;strokeColor=none;align=center;outlineConnect=0;shape=mxgraph.citrix.license_server;" vertex="1" parent="1">
          <mxGeometry x="1852.65" y="1477" width="55.82" height="73" as="geometry" />
        </mxCell>
        <mxCell id="pzzw7nvtaeHo-amtORk9-100" value="" style="verticalLabelPosition=bottom;sketch=0;aspect=fixed;html=1;verticalAlign=top;strokeColor=none;align=center;outlineConnect=0;shape=mxgraph.citrix.desktop;" vertex="1" parent="1">
          <mxGeometry x="1601.8" y="1520" width="63.57" height="70" as="geometry" />
        </mxCell>
        <mxCell id="pzzw7nvtaeHo-amtORk9-101" value="" style="endArrow=classic;html=1;rounded=0;" edge="1" parent="1">
          <mxGeometry width="50" height="50" relative="1" as="geometry">
            <mxPoint x="1880.2400000000007" y="1429" as="sourcePoint" />
            <mxPoint x="1879.8000000000002" y="1470" as="targetPoint" />
          </mxGeometry>
        </mxCell>
        <mxCell id="pzzw7nvtaeHo-amtORk9-102" value="Nginx服务器" style="text;html=1;resizable=0;autosize=1;align=center;verticalAlign=middle;points=[];fillColor=none;strokeColor=none;rounded=0;" vertex="1" parent="1">
          <mxGeometry x="1836.18" y="1544" width="90" height="30" as="geometry" />
        </mxCell>
        <mxCell id="pzzw7nvtaeHo-amtORk9-103" value="" style="verticalLabelPosition=bottom;sketch=0;aspect=fixed;html=1;verticalAlign=top;strokeColor=none;align=center;outlineConnect=0;shape=mxgraph.citrix.license_server;" vertex="1" parent="1">
          <mxGeometry x="1851.89" y="1620" width="55.82" height="73" as="geometry" />
        </mxCell>
        <mxCell id="pzzw7nvtaeHo-amtORk9-104" value="门户后端服务器" style="text;html=1;resizable=0;autosize=1;align=center;verticalAlign=middle;points=[];fillColor=none;strokeColor=none;rounded=0;" vertex="1" parent="1">
          <mxGeometry x="1825.4199999999998" y="1687" width="110" height="30" as="geometry" />
        </mxCell>
        <mxCell id="pzzw7nvtaeHo-amtORk9-107" value="" style="endArrow=classic;html=1;rounded=0;" edge="1" parent="1">
          <mxGeometry width="50" height="50" relative="1" as="geometry">
            <mxPoint x="1923.42" y="1660.88" as="sourcePoint" />
            <mxPoint x="2009.8900000000003" y="1660" as="targetPoint" />
          </mxGeometry>
        </mxCell>
        <mxCell id="pzzw7nvtaeHo-amtORk9-108" value="" style="verticalLabelPosition=bottom;sketch=0;aspect=fixed;html=1;verticalAlign=top;strokeColor=none;align=center;outlineConnect=0;shape=mxgraph.citrix.document;" vertex="1" parent="1">
          <mxGeometry x="2066.0699999999997" y="1572.5" width="37.86" height="58" as="geometry" />
        </mxCell>
        <mxCell id="pzzw7nvtaeHo-amtORk9-109" value="运行日志" style="text;html=1;resizable=0;autosize=1;align=center;verticalAlign=middle;points=[];fillColor=none;strokeColor=none;rounded=0;" vertex="1" parent="1">
          <mxGeometry x="2050" y="1630.5" width="70" height="30" as="geometry" />
        </mxCell>
        <mxCell id="pzzw7nvtaeHo-amtORk9-110" value="" style="endArrow=open;endSize=12;dashed=1;html=1;rounded=0;" edge="1" parent="1">
          <mxGeometry width="160" relative="1" as="geometry">
            <mxPoint x="1916.2699999999995" y="1520" as="sourcePoint" />
            <mxPoint x="1976.2699999999995" y="1520" as="targetPoint" />
            <Array as="points">
              <mxPoint x="1956.27" y="1520" />
            </Array>
          </mxGeometry>
        </mxCell>
        <mxCell id="pzzw7nvtaeHo-amtORk9-111" value="" style="endArrow=classic;html=1;rounded=0;" edge="1" parent="1">
          <mxGeometry width="50" height="50" relative="1" as="geometry">
            <mxPoint x="1879.8199999999997" y="1574" as="sourcePoint" />
            <mxPoint x="1879.38" y="1615" as="targetPoint" />
          </mxGeometry>
        </mxCell>
        <mxCell id="pzzw7nvtaeHo-amtORk9-112" value="" style="verticalLabelPosition=bottom;sketch=0;aspect=fixed;html=1;verticalAlign=top;strokeColor=none;align=center;outlineConnect=0;shape=mxgraph.citrix.document;" vertex="1" parent="1">
          <mxGeometry x="2070.9399999999996" y="1660.5" width="37.86" height="58" as="geometry" />
        </mxCell>
        <mxCell id="pzzw7nvtaeHo-amtORk9-113" value="错误日志" style="text;html=1;resizable=0;autosize=1;align=center;verticalAlign=middle;points=[];fillColor=none;strokeColor=none;rounded=0;" vertex="1" parent="1">
          <mxGeometry x="2054.87" y="1718.5" width="70" height="30" as="geometry" />
        </mxCell>
        <mxCell id="pzzw7nvtaeHo-amtORk9-114" value="错误日志" style="text;html=1;resizable=0;autosize=1;align=center;verticalAlign=middle;points=[];fillColor=none;strokeColor=none;rounded=0;" vertex="1" parent="1">
          <mxGeometry x="2054.87" y="1718.5" width="70" height="30" as="geometry" />
        </mxCell>
        <mxCell id="pzzw7nvtaeHo-amtORk9-115" value="实时写入日志" style="text;html=1;resizable=0;autosize=1;align=center;verticalAlign=middle;points=[];fillColor=none;strokeColor=none;rounded=0;" vertex="1" parent="1">
          <mxGeometry x="1914.8899999999999" y="1620" width="100" height="30" as="geometry" />
        </mxCell>
      </root>
    </mxGraphModel>
  </diagram>
</mxfile>
